<svg width="17" height="17" viewBox="0 0 17 17" fill="none" xmlns="http://www.w3.org/2000/svg">
<path d="M1.05317 4.75829C1.74651 3.37766 2.81015 2.21705 4.1252 1.40618C5.44025 0.595315 6.95489 0.16614 8.49984 0.166626C10.7457 0.166626 12.6323 0.99246 14.0748 2.33746L11.6857 4.72746C10.8215 3.90163 9.72317 3.48079 8.49984 3.48079C6.329 3.48079 4.49151 4.94746 3.83734 6.91663C3.67067 7.41663 3.57567 7.94996 3.57567 8.49996C3.57567 9.04996 3.67067 9.58329 3.83734 10.0833C4.49234 12.0533 6.329 13.5191 8.49984 13.5191C9.62067 13.5191 10.5748 13.2233 11.3215 12.7233C11.7544 12.4383 12.1249 12.0685 12.4108 11.6362C12.6967 11.2039 12.892 10.7182 12.9848 10.2083H8.49984V6.98496H16.3482C16.4465 7.52996 16.4998 8.09829 16.4998 8.68913C16.4998 11.2275 15.5915 13.3641 14.0148 14.8141C12.6365 16.0875 10.7498 16.8333 8.49984 16.8333C7.40537 16.8337 6.32154 16.6185 5.31029 16.1998C4.29905 15.7812 3.38021 15.1674 2.6063 14.3935C1.8324 13.6196 1.21858 12.7008 0.79995 11.6895C0.381316 10.6783 0.166067 9.59443 0.166505 8.49996C0.166505 7.15496 0.488171 5.88329 1.05317 4.75829Z" fill="white"/>
</svg>
